<?xml version="1.0" standalone="no"?><!DOCTYPE svg PUBLIC "-//W3C//DTD SVG 1.1//EN" "http://www.w3.org/Graphics/SVG/1.1/DTD/svg11.dtd"><svg t="1749175125192" class="icon" viewBox="0 0 1024 1024" version="1.1" xmlns="http://www.w3.org/2000/svg" p-id="4472" xmlns:xlink="http://www.w3.org/1999/xlink" width="16" height="16"><path d="M986.90048 1024l-280.99072-141.18912-3.15904-3.45088L48.7424 184.11008 217.27744 44.01664l656.16384 698.24z m-247.22432-181.90848l145.57696 73.1136-58.7264-146.21696L212.61824 115.88096 125.27104 188.5184z m0 0" p-id="4473"></path><path d="M0 224.82944L265.69728 2.67264l35.76832 38.20544-265.5232 222.1568z m0 0" p-id="4474"></path><path d="M21.79584 33.96096L62.22848 0l109.12768 116.02944-40.4224 33.96096zM37.4272 1024l113.1264-281.74336L806.72768 43.86816l168.69376 140.08832L318.59712 882.97472z m160.21504-254.85824l-58.7264 146.22208 145.57184-73.1136 614.4-653.73184-87.51104-72.64256zM722.54464 41.03168l35.76832-38.1952L1024 224.98304l-35.76832 38.21056z m0 0" p-id="4475"></path><path d="M852.97664 116.19328L962.11456 0.1536l40.4224 33.96096-109.30176 116.02944z m0 0" p-id="4476"></path><path d="M512.256 133.1712L226.08896 260.1984s-30.11584 185.85088 0 272.32256c36.27008 104.39168 286.1568 320.89088 286.1568 320.89088s250.55744-215.552 286.1568-320.89088c29.77792-88.36096 0-272.9472 0-272.9472z m0 0" fill="#0000FF" p-id="4477"></path></svg>